<?xml version="1.0" encoding="UTF-8"?>
<svg width="920" height="680" viewBox="0 0 920 680" xmlns="http://www.w3.org/2000/svg" role="img" aria-label="Декоративная иллюстрация гитары">
  <defs>
    <linearGradient id="bg" x1="0" y1="0" x2="1" y2="1">
      <stop offset="0" stop-color="#F6F1E8"/>
      <stop offset="1" stop-color="#EDE4D7"/>
    </linearGradient>
    <linearGradient id="wood" x1="0" y1="0" x2="1" y2="1">
      <stop offset="0" stop-color="#D77461"/>
      <stop offset="1" stop-color="#B85B4A"/>
    </linearGradient>
    <linearGradient id="accent" x1="0" y1="0" x2="1" y2="1">
      <stop offset="0" stop-color="#2F7B6F"/>
      <stop offset="1" stop-color="#1F2A2E"/>
    </linearGradient>
    <filter id="softShadow" x="-20%" y="-20%" width="140%" height="140%">
      <feDropShadow dx="0" dy="18" stdDeviation="14" flood-color="#1F2A2E" flood-opacity="0.18"/>
    </filter>
  </defs>

  <rect width="920" height="680" rx="44" fill="url(#bg)"/>

  <!-- soft blobs -->
  <path d="M118 190c-32-80 54-166 154-142 102 25 150 148 73 214-77 66-183 28-227-72Z" fill="#E7EFEA" opacity="0.95"/>
  <path d="M720 140c64-46 148 2 142 84-6 82-92 122-156 80-64-43-50-118 14-164Z" fill="#F0E7E3" opacity="0.95"/>
  <path d="M768 560c-36 70-132 92-194 38-62-54-54-148 14-190 68-42 160 12 180 78Z" fill="#E7EFEA" opacity="0.95"/>

  <!-- guitar body -->
  <g filter="url(#softShadow)">
    <path d="M482 170c-72 0-130 55-130 128 0 37 15 71 40 95l-34 40c-16 19-22 45-16 69 10 38 47 66 89 66 33 0 63-16 80-41l11-16 10 16c17 25 47 41 80 41 42 0 79-28 89-66 6-24 0-50-16-69l-34-40c25-24 40-58 40-95 0-73-58-128-129-128-37 0-71 15-96 40-25-25-59-40-94-40Z" fill="url(#wood)"/>
    <path d="M482 214c-51 0-92 39-92 90 0 28 12 53 31 70l-39 46c-6 7-8 17-6 26 5 20 26 35 48 35 18 0 34-9 43-23l15-23 15 23c9 14 25 23 43 23 22 0 43-15 48-35 2-9 0-19-6-26l-39-46c19-17 31-42 31-70 0-51-41-90-92-90-27 0-51 11-67 29-16-18-40-29-67-29Z" fill="rgba(255,255,255,0.16)"/>
    <circle cx="482" cy="328" r="54" fill="#1F2A2E" opacity="0.18"/>
    <circle cx="482" cy="328" r="42" fill="#F6F1E8" opacity="0.8"/>
    <circle cx="482" cy="328" r="18" fill="#1F2A2E" opacity="0.22"/>
  </g>

  <!-- neck -->
  <g filter="url(#softShadow)">
    <path d="M534 126 740 66c18-6 38 4 44 22l10 32c6 18-4 38-22 44l-206 60c-18 5-38-5-44-23l-10-32c-6-18 4-38 22-43Z" fill="url(#accent)"/>
    <path d="M530 132 732 74c12-4 24 3 28 15l7 24c4 12-3 24-15 28l-202 58c-12 4-24-3-28-15l-7-24c-4-12 3-24 15-28Z" fill="rgba(246,241,232,0.14)"/>
    <!-- frets -->
    <g opacity="0.35" stroke="#F6F1E8" stroke-width="3">
      <path d="M596 112 606 148"/>
      <path d="M642 98 652 134"/>
      <path d="M688 84 698 120"/>
      <path d="M734 70 744 106"/>
    </g>
    <!-- strings -->
    <g opacity="0.35" stroke="#F6F1E8" stroke-width="1.5">
      <path d="M548 126 768 62"/>
      <path d="M553 142 773 78"/>
      <path d="M558 158 778 94"/>
      <path d="M563 174 783 110"/>
    </g>
  </g>

  <!-- small note -->
  <g transform="translate(176 492) rotate(-10)">
    <path d="M0 34c0-14 10-26 24-26h10v36c0 12-10 22-22 22S0 56 0 44v-10Z" fill="#1F2A2E" opacity="0.18"/>
    <path d="M34 6 86 0v44c-10 4-18 6-26 6-16 0-26-9-26-22V6Z" fill="#2F7B6F" opacity="0.58"/>
  </g>
</svg>

